<svg width="20" height="25" viewBox="0 0 20 25" fill="none" xmlns="http://www.w3.org/2000/svg">
<g clip-path="url(#clip0_9_1573)">
<path d="M19.3735 8.38959C17.7349 9.40212 16.7229 11.1379 16.7229 13.0665C16.7229 15.2363 18.0241 17.2131 20 18.0328C19.6145 19.2864 19.0361 20.4436 18.3133 21.5043C17.253 22.999 16.1446 24.542 14.506 24.542C12.8675 24.542 12.3855 23.5776 10.4578 23.5776C8.57831 23.5776 7.90361 24.5902 6.36145 24.5902C4.81928 24.5902 3.75904 23.1919 2.55422 21.4561C0.963856 19.0453 0.0481928 16.2488 0 13.3076C0 8.53423 3.08434 5.97879 6.16867 5.97879C7.80723 5.97879 9.15663 7.03954 10.1687 7.03954C11.1325 7.03954 12.6747 5.93057 14.506 5.93057C16.4337 5.88235 18.2651 6.79846 19.3735 8.38959ZM13.6386 3.9055C14.4578 2.94118 14.8916 1.73578 14.9398 0.48216C14.9398 0.337512 14.9398 0.144648 14.8916 0C13.494 0.144648 12.1928 0.819672 11.2771 1.88042C10.4578 2.79653 9.9759 3.95371 9.92771 5.20733C9.92771 5.35198 9.92771 5.49662 9.9759 5.64127C10.0723 5.64127 10.2169 5.68949 10.3133 5.68949C11.6145 5.59306 12.8193 4.91803 13.6386 3.9055Z" fill="#272727"/>
</g>
<defs>
<clipPath id="clip0_9_1573">
<rect width="20" height="24.5902" fill="white"/>
</clipPath>
</defs>
</svg>
